<?xml version="1.0" encoding="utf-8"?>
<!-- Generator: Adobe Illustrator 21.0.0, SVG Export Plug-In . SVG Version: 6.00 Build 0)  -->
<svg version="1.1" xmlns="http://www.w3.org/2000/svg" xmlns:xlink="http://www.w3.org/1999/xlink" x="0px" y="0px"
	 viewBox="0 0 266.9 266.9" style="enable-background:new 0 0 266.9 266.9;" xml:space="preserve">
<style type="text/css">
	.st0{fill:#FFFFFF;}
</style>
<g id="Layer_1">
	<path id="White_2_" d="M252.2,266.9c8.1,0,14.7-6.6,14.7-14.7V14.7c0-8.1-6.6-14.7-14.7-14.7H14.7C6.6,0,0,6.6,0,14.7v237.4
		c0,8.1,6.6,14.7,14.7,14.7H252.2z"/>
	<path class="st0" d="M82.6,169h99.2c12.6,0,19.2-6,19.2-18.5v-11.4c22.2-0.2,40.2-17.3,40.2-38.3c0-21-18-38.1-40.2-38.3v0H63.4v88
		C63.4,163.1,70,169,82.6,169z M227.3,100.9c0,12.9-11.8,23.3-26.3,23.5V77.3C215.5,77.5,227.3,88,227.3,100.9z M25.7,177h213
		c0,11.8-9.6,21.4-21.4,21.4H47.1C35.3,198.4,25.7,188.8,25.7,177z"/>
</g>
<g id="Layer_2">
</g>
</svg>
