<?xml version="1.0" encoding="utf-8"?>
<!-- Generator: Adobe Illustrator 21.0.0, SVG Export Plug-In . SVG Version: 6.00 Build 0)  -->
<svg version="1.1" id="Layer_1" xmlns="http://www.w3.org/2000/svg" xmlns:xlink="http://www.w3.org/1999/xlink" x="0px" y="0px"
	 viewBox="0 0 267.2 267.2" style="enable-background:new 0 0 267.2 267.2;" xml:space="preserve">
<style type="text/css">
	.st0{fill:#FFFFFF;}
</style>
<path class="st0" d="M252.3,0.1H14.9C6.7,0.1,0.1,6.7,0.1,14.9v237.4c0,8.1,6.6,14.7,14.7,14.7h237.4c8.1,0,14.7-6.6,14.7-14.7V14.9
	C267,6.7,260.4,0.1,252.3,0.1z"/>
<g>
	<path d="M133.6,100.7c-18.1,0-32.9,14.8-32.9,32.9s14.8,32.9,32.9,32.9s32.9-14.8,32.9-32.9S151.7,100.7,133.6,100.7z"/>
	<path d="M179.1,55.9H88.1C68.7,55.9,53,71.6,53,90.9v85.4c0,19.3,15.7,35.1,35.1,35.1h91.1c19.3,0,35.1-15.7,35.1-35.1V90.9
		C214.2,71.6,198.5,55.9,179.1,55.9z M133.6,183.6c-27.6,0-50-22.4-50-50c0-27.6,22.4-50,50-50s50,22.4,50,50
		C183.6,161.2,161.2,183.6,133.6,183.6z M185.3,94.1c-6.5,0-11.7-5.3-11.7-11.7s5.3-11.7,11.7-11.7c6.5,0,11.7,5.3,11.7,11.7
		S191.8,94.1,185.3,94.1z"/>
	<path d="M252.3,0.1H14.9C6.7,0.1,0.1,6.7,0.1,14.9v237.4c0,8.1,6.6,14.7,14.7,14.7h237.4c8.1,0,14.7-6.6,14.7-14.7V14.9
		C267,6.7,260.4,0.1,252.3,0.1z M231.3,176.3c0,28.8-23.4,52.1-52.1,52.1H88.1c-28.8,0-52.1-23.4-52.1-52.1V90.9
		c0-28.8,23.4-52.1,52.1-52.1h91.1c28.8,0,52.1,23.4,52.1,52.1V176.3z"/>
</g>
</svg>
