<?xml version="1.0" encoding="utf-8"?>
<!-- Generator: Adobe Illustrator 21.0.0, SVG Export Plug-In . SVG Version: 6.00 Build 0)  -->
<svg version="1.1" xmlns="http://www.w3.org/2000/svg" xmlns:xlink="http://www.w3.org/1999/xlink" x="0px" y="0px"
	 viewBox="0 0 266.9 266.9" style="enable-background:new 0 0 266.9 266.9;" xml:space="preserve">
<style type="text/css">
	.st0{fill:#FFFFFF;}
</style>
<g id="Layer_1">
	<path id="White_2_" d="M252.2,266.9c8.1,0,14.7-6.6,14.7-14.7V14.7c0-8.1-6.6-14.7-14.7-14.7H14.7C6.6,0,0,6.6,0,14.7v237.4
		c0,8.1,6.6,14.7,14.7,14.7H252.2z"/>
	<path class="st0" d="M143.7,168.9H97.2v62.4h-35V35.6h81.4c37,0,66.9,29.7,66.9,66.7C210.6,138.9,180.6,168.9,143.7,168.9z
		 M143.7,70.5H97.2v63.4h46.4c17.5,0,31.7-14.2,31.7-31.7C175.4,84.8,161.2,70.5,143.7,70.5z"/>
</g>
<g id="Layer_2">
</g>
</svg>
