<?xml version="1.0" encoding="utf-8"?>
<!-- Generator: Adobe Illustrator 21.0.0, SVG Export Plug-In . SVG Version: 6.00 Build 0)  -->
<svg version="1.1" xmlns="http://www.w3.org/2000/svg" xmlns:xlink="http://www.w3.org/1999/xlink" x="0px" y="0px"
	 viewBox="0 0 266.9 266.9" style="enable-background:new 0 0 266.9 266.9;" xml:space="preserve">
<style type="text/css">
	.st0{fill:#FFFFFF;}
</style>
<g id="Layer_1">
	<path id="White_2_" d="M252.2,266.9c8.1,0,14.7-6.6,14.7-14.7V14.7c0-8.1-6.6-14.7-14.7-14.7H14.7C6.6,0,0,6.6,0,14.7v237.4
		c0,8.1,6.6,14.7,14.7,14.7H252.2z"/>
	<g>
		<path class="st0" d="M205.8,65l-3.6,13.5H64.7L61.1,65H205.8z"/>
		<rect x="33.7" y="130.7" class="st0" width="199.5" height="14.7"/>
		<rect x="130.6" y="81.5" class="st0" width="5.8" height="52.4"/>
		<polygon class="st0" points="161.6,82 204.8,201.9 221.6,201.9 178.3,82 		"/>
		<polygon class="st0" points="45.3,201.9 62.1,201.9 105.3,82 88.6,82 		"/>
	</g>
</g>
<g id="Layer_2">
</g>
</svg>
