<?xml version="1.0" encoding="utf-8"?>
<!-- Generator: Adobe Illustrator 21.0.0, SVG Export Plug-In . SVG Version: 6.00 Build 0)  -->
<svg version="1.1" xmlns="http://www.w3.org/2000/svg" xmlns:xlink="http://www.w3.org/1999/xlink" x="0px" y="0px"
	 viewBox="0 0 266.9 266.9" style="enable-background:new 0 0 266.9 266.9;" xml:space="preserve">
<style type="text/css">
	.st0{fill:#FFFFFF;}
</style>
<g id="Layer_1">
	<path id="White_2_" d="M252.2,266.9c8.1,0,14.7-6.6,14.7-14.7V14.7c0-8.1-6.6-14.7-14.7-14.7H14.7C6.6,0,0,6.6,0,14.7v237.4
		c0,8.1,6.6,14.7,14.7,14.7H252.2z"/>
	<path class="st0" d="M112.9,111.1v117.5c0,5.7-4.9,10.6-10.6,10.6c-6,0-10.9-4.9-10.9-10.6V110.8c-6.5,0-14.7-4.1-14.7-17.5V30.6
		c0-2.5,1.4-3.5,3-3.5c1.6,0,3.5,1.4,3.5,3.5v46.9h8.5V30.6c0-2.5,1.6-3.5,3.3-3.5s3.3,1.4,3.3,3.5v46.9h8.7V30.6
		c0-2.5,1.4-3.5,3.3-3.5c1.6,0,3.3,1.4,3.3,3.5v46.9h8.5V30.6c0-2.5,1.6-3.5,3.3-3.5s3.5,1.4,3.5,3.5v61.9
		C128.7,105.9,120.5,111.1,112.9,111.1z M179.4,240.3c0,0-11.5,0-11.5-11.5c0-11.5,0-67.9,0-67.9c0-4.6-1.1-5.7-5.7-5.7
		c-0.3,0-3.8,0-3.8,0V42.6c0-9,7.1-16.1,15.8-16.1c9,0,16.1,7.1,16.1,16.1v185.1C190.3,241.1,179.4,240.3,179.4,240.3z"/>
</g>
<g id="Layer_2">
</g>
</svg>
