<?xml version="1.0" encoding="utf-8"?>
<!-- Generator: Adobe Illustrator 21.0.0, SVG Export Plug-In . SVG Version: 6.00 Build 0)  -->
<svg version="1.1" xmlns="http://www.w3.org/2000/svg" xmlns:xlink="http://www.w3.org/1999/xlink" x="0px" y="0px"
	 viewBox="0 0 266.9 266.9" style="enable-background:new 0 0 266.9 266.9;" xml:space="preserve">
<style type="text/css">
	.st0{fill:#FFFFFF;}
</style>
<g id="Layer_1">
	<path id="White_2_" d="M252.2,266.9c8.1,0,14.7-6.6,14.7-14.7V14.7c0-8.1-6.6-14.7-14.7-14.7H14.7C6.6,0,0,6.6,0,14.7v237.4
		c0,8.1,6.6,14.7,14.7,14.7H252.2z"/>
	<path class="st0" d="M120.6,141.2c-3.4,1-6.1-1-7-4.4l-10.9-37.6c-0.7-2.7-2.2-3.6-4.1-2.9c-2.2,0.7-2.2,2.7-1.5,4.8l20.1,67.4
		H94.7c0,27.2,0,51.2,0,51.2c0,7.8-3.6,8.5-5.6,8.5c-1.7,0-6.3-0.7-6.3-8.2c0-7,0-48.7,0-48.7c0-2.2-0.7-3.2-2.9-3.2
		c-2.7,0-3.4,1-3.4,3.2c0,0,0,41.7,0,48.7c0,7.5-4.1,8.2-5.8,8.2c-1.7,0-5.6-0.7-5.6-8.5c0,0,0-24,0-51.2H42.3l20.4-67.4
		c0.7-2.2,0.5-4.1-1.5-4.8c-1.9-0.7-3.6,0.2-4.4,2.9l-10.7,37.6c-1.5,3.4-3.9,5.3-7,4.4c-3.4-1-4.4-3.6-3.2-7.8L48.6,91
		c1.9-6.3,6.8-16.2,22.1-16.2h18.2c15.5,0,20.1,9.9,22.1,16.2l12.8,42.4C125,137.6,123.8,140.2,120.6,141.2z M80.1,69
		c-8.5,0-15.3-6.8-15.3-15.5c0-8.2,6.8-15,15.3-15s15,6.8,15,15C95.1,62.2,88.6,69,80.1,69z M134.7,228.5V38.4h10.7v190.1H134.7z
		 M225.3,148.5c-3.6,0-6.1-1.7-6.1-8v-33c0-3.6-1.9-4.4-2.9-4.4s-3.2,0.7-3.2,4.4c0,4.6,0,112.2,0,112.2c0,7.8-6.3,8.5-8.5,8.5
		c-2.2,0-8.2-1-8.2-8.2c0-7,0-65.9,0-65.9c0-1.7,0-3.4-2.2-3.4c-1.9,0-2.4,1.2-2.4,3.4c0,0,0,58.9,0,65.9c0,7.5-6.3,8.2-8.5,8.2
		c-2.2,0-8-0.7-8-8.5c0,0,0-107.6,0-112.2c0-4.4-2.2-4.4-3.2-4.4c-1.2,0-3.2,0.5-3.2,4.4v33c0,6.5-2.7,8-5.8,8c-4.1,0-6.1-1.7-6.1-8
		V97.8c0-18.7,9.2-23.5,24.5-23.5h25c15.3,0,24.7,4.9,24.7,23.5v42.7C231.4,146.8,229,148.5,225.3,148.5z M194.5,69
		c-8.5,0-15.5-6.8-15.5-15.5c0-8.2,7-15,15.5-15c8.2,0,15.3,6.8,15.3,15C209.8,62.2,202.8,69,194.5,69z"/>
</g>
<g id="Layer_2">
</g>
</svg>
