<?xml version="1.0" encoding="utf-8"?>
<!-- Generator: Adobe Illustrator 21.0.0, SVG Export Plug-In . SVG Version: 6.00 Build 0)  -->
<svg version="1.1" id="Layer_1" xmlns="http://www.w3.org/2000/svg" xmlns:xlink="http://www.w3.org/1999/xlink" x="0px" y="0px"
	 viewBox="0 0 267.2 267.2" style="enable-background:new 0 0 267.2 267.2;" xml:space="preserve">
<style type="text/css">
	.st0{fill:#FFFFFF;}
</style>
<path class="st0" d="M252.3,0.1H14.9C6.7,0.1,0.1,6.7,0.1,14.9v237.4c0,8.1,6.6,14.7,14.7,14.7h237.4c8.1,0,14.7-6.6,14.7-14.7V14.9
	C267,6.7,260.4,0.1,252.3,0.1z"/>
<path d="M252.3,0.1H14.9C6.7,0.1,0.1,6.7,0.1,14.9v237.4c0,8.1,6.6,14.7,14.7,14.7h237.4c8.1,0,14.7-6.6,14.7-14.7V14.9
	C267,6.7,260.4,0.1,252.3,0.1z M208.2,95.3c0.1,1.7,0.1,3.3,0.1,5c0,50.9-38.7,109.6-109.6,109.6c-21.7,0-42-6.4-59-17.3
	c3,0.4,6.1,0.5,9.2,0.5c18,0,34.6-6.2,47.8-16.5c-16.9-0.3-31.1-11.4-36-26.7c2.4,0.4,4.8,0.7,7.2,0.7c3.5,0,6.9-0.5,10.1-1.4
	c-17.6-3.5-30.9-19.1-30.9-37.8c0-0.2,0-0.3,0-0.5c5.2,2.9,11.1,4.6,17.4,4.8c-10.3-6.9-17.1-18.7-17.1-32.1
	c0-7.1,1.9-13.7,5.2-19.4c19,23.3,47.4,38.6,79.4,40.2c-0.7-2.8-1-5.8-1-8.8c0-21.3,17.2-38.5,38.5-38.5c11.1,0,21.1,4.7,28.1,12.2
	c8.8-1.7,17-4.9,24.5-9.3c-2.9,9-9,16.5-16.9,21.3c7.8-0.9,15.2-3,22.1-6.1C222.3,83.1,215.8,89.9,208.2,95.3z"/>
</svg>
